<?xml version="1.0" encoding="UTF-8" standalone="no"?> <svg width="64" height="64" viewBox="0 0 64 64" fill="none" xmlns="http://www.w3.org/2000/svg">
<path d="M60.7099 22.4301L47.0699 8.79006C46.8826 8.60381 46.6291 8.49927 46.3649 8.49927C46.1008 8.49927 45.8473 8.60381 45.6599 8.79006L35.4899 19.8501L34.1399 21.3201C34.0556 21.4071 33.9879 21.5088 33.9399 21.6201C34.6935 21.7088 35.4391 21.8559 36.1699 22.0601C38.8707 22.7907 41.3327 24.2169 43.3102 26.1961C45.2877 28.1754 46.7117 30.6386 47.4399 33.3401C47.6489 34.0731 47.796 34.8224 47.8799 35.5801C47.992 35.5291 48.0937 35.4579 48.1799 35.3701L49.6499 34.0001L60.7099 23.8401C60.8962 23.6527 61.0007 23.3992 61.0007 23.1351C61.0007 22.8709 60.8962 22.6174 60.7099 22.4301V22.4301Z" fill="url(#paint0_linear)"/>
<path d="M29.8701 21.3201L28.5101 19.8501L18.3401 8.79006C18.1527 8.60381 17.8992 8.49927 17.6351 8.49927C17.3709 8.49927 17.1174 8.60381 16.9301 8.79006L3.29006 22.4301C3.10381 22.6174 2.99927 22.8709 2.99927 23.1351C2.99927 23.3992 3.10381 23.6527 3.29006 23.8401L14.2101 34.7601L16.0001 36.5801C16.0467 35.7423 16.1604 34.9097 16.3401 34.0901C16.9715 31.2321 18.3747 28.602 20.3971 26.4862C22.4195 24.3704 24.9835 22.8498 27.8101 22.0901C28.5409 21.8859 29.2865 21.7388 30.0401 21.6501C30.0045 21.5304 29.9468 21.4185 29.8701 21.3201V21.3201Z" fill="url(#paint1_linear)"/>
<path d="M49.6501 34C49.512 33.2608 49.3216 32.5323 49.0801 31.82C48.1959 29.1633 46.7042 26.7495 44.7234 24.7705C42.7427 22.7915 40.3276 21.3019 37.6701 20.42C36.9579 20.1786 36.2294 19.9881 35.4901 19.85V19.85C33.1805 19.3794 30.7997 19.3794 28.4901 19.85C27.7508 19.9881 27.0223 20.1786 26.3101 20.42C23.5514 21.3351 21.0553 22.9046 19.0352 24.9943C17.0151 27.084 15.5311 29.6319 14.7101 32.42C14.4804 33.1762 14.3066 33.9483 14.1901 34.73C14.0546 35.647 13.9911 36.5731 14.0001 37.5C14.0001 42.2739 15.8965 46.8523 19.2722 50.2279C22.6478 53.6036 27.2262 55.5 32.0001 55.5C36.774 55.5 41.3524 53.6036 44.728 50.2279C48.1037 46.8523 50.0001 42.2739 50.0001 37.5C50.0019 36.3245 49.8846 35.1519 49.6501 34V34Z" fill="url(#paint2_linear)"/>
<path d="M32 23.5C29.2311 23.5 26.5243 24.3211 24.222 25.8594C21.9197 27.3978 20.1253 29.5843 19.0657 32.1424C18.0061 34.7006 17.7288 37.5155 18.269 40.2313C18.8092 42.947 20.1426 45.4416 22.1005 47.3995C24.0584 49.3574 26.553 50.6908 29.2687 51.231C31.9845 51.7712 34.7994 51.4939 37.3576 50.4343C39.9157 49.3747 42.1022 47.5803 43.6406 45.278C45.1789 42.9757 46 40.2689 46 37.5C46 33.787 44.525 30.226 41.8995 27.6005C39.274 24.975 35.713 23.5 32 23.5V23.5Z" fill="url(#paint3_linear)"/>
<path d="M40.55 34.5701C40.492 34.3924 40.3854 34.2345 40.2422 34.1143C40.0991 33.9941 39.9251 33.9165 39.74 33.8901L35 33.2001L32.9 28.9201C32.817 28.7537 32.6894 28.6137 32.5313 28.5159C32.3732 28.418 32.1909 28.3662 32.005 28.3662C31.819 28.3662 31.6368 28.418 31.4787 28.5159C31.3206 28.6137 31.1929 28.7537 31.11 28.9201L29 33.2001L24.27 33.8901C24.0848 33.917 23.9108 33.9953 23.7679 34.1161C23.625 34.237 23.5189 34.3954 23.4616 34.5736C23.4043 34.7517 23.3981 34.9424 23.4438 35.1239C23.4895 35.3053 23.5852 35.4703 23.72 35.6001L27.14 38.9401L26.33 43.6501C26.2995 43.8336 26.3208 44.0219 26.3914 44.194C26.4621 44.366 26.5793 44.5149 26.7299 44.624C26.8806 44.7331 27.0586 44.798 27.2441 44.8114C27.4296 44.8249 27.6152 44.7864 27.78 44.7001L32 42.4701L36.23 44.6901C36.3948 44.7763 36.5803 44.8149 36.7658 44.8014C36.9513 44.788 37.1294 44.7231 37.28 44.614C37.4306 44.5049 37.5479 44.356 37.6185 44.184C37.6892 44.0119 37.7105 43.8236 37.68 43.6401L36.87 38.9301L40.3 35.6001C40.434 35.4691 40.5285 35.3031 40.5727 35.121C40.6169 34.9389 40.609 34.748 40.55 34.5701Z" fill="url(#paint4_linear)"/>
<defs>
<linearGradient id="paint0_linear" x1="33.9299" y1="22.0401" x2="60.9999" y2="22.0401" gradientUnits="userSpaceOnUse">
<stop stop-color="#2357FF"/>
<stop offset="0.38" stop-color="#1B6FF6"/>
<stop offset="1" stop-color="#0B9EE3"/>
</linearGradient>
<linearGradient id="paint1_linear" x1="84.1216" y1="641.44" x2="816.116" y2="641.44" gradientUnits="userSpaceOnUse">
<stop stop-color="#2357FF"/>
<stop offset="0.38" stop-color="#1B6FF6"/>
<stop offset="1" stop-color="#0B9EE3"/>
</linearGradient>
<linearGradient id="paint2_linear" x1="14.0001" y1="37.5" x2="50.0001" y2="37.5" gradientUnits="userSpaceOnUse">
<stop stop-color="#0C90F2"/>
<stop offset="0.42" stop-color="#6BB8F1"/>
<stop offset="0.82" stop-color="#BFDBEF"/>
<stop offset="1" stop-color="#E0E9EF"/>
</linearGradient>
<linearGradient id="paint3_linear" x1="522" y1="1073.5" x2="1306" y2="1073.5" gradientUnits="userSpaceOnUse">
<stop stop-color="#2357FF"/>
<stop offset="0.38" stop-color="#1B6FF6"/>
<stop offset="1" stop-color="#0B9EE3"/>
</linearGradient>
<linearGradient id="paint4_linear" x1="425.596" y1="630.522" x2="721.218" y2="630.522" gradientUnits="userSpaceOnUse">
<stop stop-color="#0C90F2"/>
<stop offset="0.42" stop-color="#6BB8F1"/>
<stop offset="0.82" stop-color="#BFDBEF"/>
<stop offset="1" stop-color="#E0E9EF"/>
</linearGradient>
</defs>
</svg>
